<svg xmlns="http://www.w3.org/2000/svg" viewBox="0 0 300 400" width="100%" height="100%">
        <defs>
            <linearGradient id="bgGrad" x1="0%" y1="0%" x2="100%" y2="100%">
                <stop offset="0%" stop-color="#E8F5E9"/>
                <stop offset="100%" stop-color="#C8E6C9"/>
            </linearGradient>
            <filter id="dropShadow" x="-10%" y="-10%" width="130%" height="130%">
                <feDropShadow dx="0" dy="10" stdDeviation="8" flood-color="#1B4332" flood-opacity="0.15"/>
            </filter>
        </defs>
        <rect width="300" height="400" rx="16" fill="url(#bgGrad)"/>
        <!-- Soft floor shadow -->
        <ellipse cx="150" cy="375" rx="75" ry="12" fill="#000000" opacity="0.12"/>
        
        <g filter="url(#dropShadow)">
            
        <ellipse cx="150" cy="280" rx="55" ry="10" fill="#3E2723"/>
        <!-- Stem & leaves -->
        <path d="M130 280 Q100 250 80 260 Q110 280 130 280 Z" fill="#2E7D32"/>
        <path d="M170 280 Q200 250 220 260 Q190 280 170 280 Z" fill="#2E7D32"/>
        <path d="M150 280 Q170 180 140 80" fill="none" stroke="#4E342E" stroke-width="5" stroke-linecap="round"/>
        <!-- Pink/Purple Blooms -->
        <circle cx="140" cy="80" r="22" fill="#E91E63"/>
        <circle cx="140" cy="80" r="10" fill="#FFF59D"/>
        <circle cx="160" cy="120" r="20" fill="#EC407A"/>
        <circle cx="160" cy="120" r="9" fill="#FFF59D"/>
        <circle cx="150" cy="160" r="18" fill="#F48FB1"/>
        <circle cx="150" cy="160" r="8" fill="#FFF59D"/>
        
            <path d="M90 280 L105 370 Q150 385 195 370 L210 280 Z" fill="#FFFFFF" stroke="#D1D5DB" stroke-width="4"/>
                     <ellipse cx="150" cy="280" rx="60" ry="12" fill="#FFFFFF" stroke="#D1D5DB" stroke-width="4"/>
        </g>
    </svg>